<svg xmlns="http://www.w3.org/2000/svg" xmlns:xlink="http://www.w3.org/1999/xlink" width="240" zoomAndPan="magnify" viewBox="0 0 810 809.999993" height="240" preserveAspectRatio="xMidYMid meet" version="1.0"><defs><g/></defs><g fill="#e15b0f" fill-opacity="1"><g transform="translate(542.604, 428.867273)"><g><path d="M 4.78125 -49.96875 C 5.476562 -50.070312 6.160156 -50.160156 6.828125 -50.234375 C 7.503906 -50.304688 8.015625 -50.34375 8.359375 -50.34375 C 9.109375 -50.34375 9.867188 -50.269531 10.640625 -50.125 C 11.410156 -49.976562 12.117188 -49.691406 12.765625 -49.265625 C 13.421875 -48.835938 13.957031 -48.25 14.375 -47.5 C 14.800781 -46.757812 15.015625 -45.765625 15.015625 -44.515625 L 15.015625 0 L 4.78125 0 Z M 4.78125 -49.96875 "/></g></g></g><g fill="#e15b0f" fill-opacity="1"><g transform="translate(562.398392, 428.867273)"><g><path d="M 15.015625 0 L 4.78125 0 L 4.78125 -35.328125 L 5.671875 -35.484375 C 5.972656 -35.535156 6.320312 -35.570312 6.71875 -35.59375 C 7.125 -35.625 7.597656 -35.640625 8.140625 -35.640625 C 9.734375 -35.640625 11.113281 -35.351562 12.28125 -34.78125 C 13.457031 -34.207031 14.195312 -33.195312 14.5 -31.75 C 15.34375 -32.894531 16.632812 -33.953125 18.375 -34.921875 C 20.113281 -35.890625 22.476562 -36.375 25.46875 -36.375 C 29.007812 -36.375 31.625 -35.675781 33.3125 -34.28125 C 35.007812 -32.894531 36.109375 -31.054688 36.609375 -28.765625 C 36.859375 -27.617188 37.019531 -26.375 37.09375 -25.03125 C 37.164062 -23.6875 37.203125 -22.363281 37.203125 -21.0625 L 37.203125 0 L 27.046875 0 L 27.046875 -20.625 C 27.046875 -21.71875 27.003906 -22.734375 26.921875 -23.671875 C 26.847656 -24.617188 26.648438 -25.429688 26.328125 -26.109375 C 26.003906 -26.785156 25.484375 -27.304688 24.765625 -27.671875 C 24.046875 -28.046875 23.035156 -28.234375 21.734375 -28.234375 C 19.890625 -28.234375 18.304688 -27.847656 16.984375 -27.078125 C 15.671875 -26.304688 15.015625 -25.347656 15.015625 -24.203125 Z M 15.015625 0 "/></g></g></g><g fill="#e15b0f" fill-opacity="1"><g transform="translate(604.377487, 428.867273)"><g><path d="M 28.53125 -42.734375 C 27.6875 -43.578125 26.628906 -44.269531 25.359375 -44.8125 C 24.085938 -45.363281 22.65625 -45.640625 21.0625 -45.640625 C 19.175781 -45.640625 17.671875 -45.140625 16.546875 -44.140625 C 15.421875 -43.148438 14.859375 -41.457031 14.859375 -39.0625 L 14.859375 -35.5625 L 26.8125 -35.5625 L 26.8125 -27.859375 L 14.859375 -27.859375 L 14.859375 0 L 4.78125 0 L 4.78125 -38.765625 C 4.78125 -43.597656 6.035156 -47.269531 8.546875 -49.78125 C 11.066406 -52.300781 14.742188 -53.5625 19.578125 -53.5625 C 21.367188 -53.5625 23.171875 -53.359375 24.984375 -52.953125 C 26.804688 -52.554688 28.3125 -51.960938 29.5 -51.171875 C 30.75 -50.367188 31.375 -49.320312 31.375 -48.03125 C 31.375 -47.332031 31.070312 -46.484375 30.46875 -45.484375 C 29.875 -44.492188 29.226562 -43.578125 28.53125 -42.734375 Z M 28.53125 -42.734375 "/></g></g></g><g fill="#e15b0f" fill-opacity="1"><g transform="translate(632.014971, 428.867273)"><g><path d="M 38.46875 -17.859375 C 38.46875 -15.367188 38.15625 -12.976562 37.53125 -10.6875 C 36.914062 -8.394531 35.894531 -6.375 34.46875 -4.625 C 33.050781 -2.882812 31.222656 -1.488281 28.984375 -0.4375 C 26.742188 0.601562 24.03125 1.125 20.84375 1.125 C 17.65625 1.125 14.953125 0.613281 12.734375 -0.40625 C 10.515625 -1.425781 8.707031 -2.796875 7.3125 -4.515625 C 5.925781 -6.234375 4.90625 -8.222656 4.25 -10.484375 C 3.601562 -12.753906 3.28125 -15.132812 3.28125 -17.625 C 3.28125 -20.164062 3.65625 -22.566406 4.40625 -24.828125 C 5.15625 -27.097656 6.265625 -29.09375 7.734375 -30.8125 C 9.203125 -32.53125 11.054688 -33.882812 13.296875 -34.875 C 15.535156 -35.875 18.148438 -36.375 21.140625 -36.375 C 24.273438 -36.375 26.953125 -35.875 29.171875 -34.875 C 31.390625 -33.882812 33.179688 -32.539062 34.546875 -30.84375 C 35.921875 -29.15625 36.914062 -27.191406 37.53125 -24.953125 C 38.15625 -22.710938 38.46875 -20.347656 38.46875 -17.859375 Z M 28.234375 -17.78125 C 28.234375 -19.125 28.132812 -20.453125 27.9375 -21.765625 C 27.738281 -23.085938 27.363281 -24.25 26.8125 -25.25 C 26.269531 -26.25 25.523438 -27.054688 24.578125 -27.671875 C 23.628906 -28.296875 22.429688 -28.609375 20.984375 -28.609375 C 19.546875 -28.609375 18.335938 -28.285156 17.359375 -27.640625 C 16.390625 -26.992188 15.617188 -26.160156 15.046875 -25.140625 C 14.472656 -24.117188 14.0625 -22.957031 13.8125 -21.65625 C 13.570312 -20.363281 13.453125 -19.046875 13.453125 -17.703125 C 13.453125 -16.359375 13.5625 -15.015625 13.78125 -13.671875 C 14.007812 -12.328125 14.394531 -11.117188 14.9375 -10.046875 C 15.488281 -8.972656 16.25 -8.113281 17.21875 -7.46875 C 18.1875 -6.820312 19.394531 -6.5 20.84375 -6.5 C 22.332031 -6.5 23.5625 -6.820312 24.53125 -7.46875 C 25.507812 -8.113281 26.269531 -8.972656 26.8125 -10.046875 C 27.363281 -11.117188 27.738281 -12.328125 27.9375 -13.671875 C 28.132812 -15.015625 28.234375 -16.382812 28.234375 -17.78125 Z M 28.234375 -17.78125 "/></g></g></g><g fill="#545454" fill-opacity="1"><g transform="translate(135.578845, 428.818699)"><g><path d="M 36.421875 0 L 32.140625 -12.3125 L 14.796875 -12.3125 L 10.65625 0 L 0.453125 0 L 17.875 -49.5625 C 18.46875 -49.8125 19.300781 -50.046875 20.375 -50.265625 C 21.457031 -50.492188 22.625 -50.609375 23.875 -50.609375 C 24.425781 -50.609375 25.039062 -50.554688 25.71875 -50.453125 C 26.394531 -50.359375 27.054688 -50.148438 27.703125 -49.828125 C 28.359375 -49.503906 28.972656 -49.039062 29.546875 -48.4375 C 30.117188 -47.832031 30.582031 -47.003906 30.9375 -45.953125 L 47.078125 0 Z M 23.578125 -41.21875 L 16.75 -19.828125 L 30.1875 -19.828125 Z M 23.578125 -41.21875 "/></g></g></g><g fill="#545454" fill-opacity="1"><g transform="translate(183.110861, 428.818699)"><g><path d="M 15.09375 0 L 4.8125 0 L 4.8125 -35.515625 L 5.703125 -35.671875 C 6.003906 -35.722656 6.351562 -35.757812 6.75 -35.78125 C 7.15625 -35.800781 7.632812 -35.8125 8.1875 -35.8125 C 9.789062 -35.8125 11.179688 -35.523438 12.359375 -34.953125 C 13.535156 -34.378906 14.269531 -33.367188 14.5625 -31.921875 C 15.414062 -33.066406 16.71875 -34.128906 18.46875 -35.109375 C 20.21875 -36.085938 22.597656 -36.578125 25.609375 -36.578125 C 29.160156 -36.578125 31.785156 -35.875 33.484375 -34.46875 C 35.191406 -33.0625 36.296875 -31.207031 36.796875 -28.90625 C 37.046875 -27.757812 37.207031 -26.507812 37.28125 -25.15625 C 37.351562 -23.800781 37.390625 -22.472656 37.390625 -21.171875 L 37.390625 0 L 27.1875 0 L 27.1875 -20.71875 C 27.1875 -21.820312 27.144531 -22.847656 27.0625 -23.796875 C 26.988281 -24.753906 26.789062 -25.570312 26.46875 -26.25 C 26.144531 -26.925781 25.617188 -27.453125 24.890625 -27.828125 C 24.171875 -28.203125 23.160156 -28.390625 21.859375 -28.390625 C 20.003906 -28.390625 18.410156 -28 17.078125 -27.21875 C 15.753906 -26.445312 15.09375 -25.484375 15.09375 -24.328125 Z M 15.09375 0 "/></g></g></g><g fill="#545454" fill-opacity="1"><g transform="translate(225.311486, 428.818699)"><g><path d="M 27.109375 -20.71875 C 27.109375 -21.820312 27.070312 -22.847656 27 -23.796875 C 26.925781 -24.753906 26.722656 -25.570312 26.390625 -26.25 C 26.066406 -26.925781 25.539062 -27.453125 24.8125 -27.828125 C 24.09375 -28.203125 23.082031 -28.390625 21.78125 -28.390625 C 19.925781 -28.390625 18.332031 -28 17 -27.21875 C 15.675781 -26.445312 15.015625 -25.484375 15.015625 -24.328125 L 15.015625 0 L 4.8125 0 L 4.8125 -52.9375 C 4.90625 -52.988281 5.300781 -53.050781 6 -53.125 C 6.707031 -53.195312 7.460938 -53.234375 8.265625 -53.234375 C 9.066406 -53.234375 9.863281 -53.160156 10.65625 -53.015625 C 11.457031 -52.867188 12.179688 -52.582031 12.828125 -52.15625 C 13.484375 -51.726562 14.007812 -51.125 14.40625 -50.34375 C 14.8125 -49.570312 15.015625 -48.5625 15.015625 -47.3125 L 15.015625 -32.359375 C 15.421875 -32.816406 15.921875 -33.296875 16.515625 -33.796875 C 17.117188 -34.296875 17.84375 -34.753906 18.6875 -35.171875 C 19.539062 -35.597656 20.53125 -35.9375 21.65625 -36.1875 C 22.789062 -36.445312 24.082031 -36.578125 25.53125 -36.578125 C 29.082031 -36.578125 31.707031 -35.875 33.40625 -34.46875 C 35.113281 -33.0625 36.21875 -31.207031 36.71875 -28.90625 C 36.96875 -27.757812 37.128906 -26.507812 37.203125 -25.15625 C 37.285156 -23.800781 37.328125 -22.472656 37.328125 -21.171875 L 37.328125 0 L 27.109375 0 Z M 27.109375 -20.71875 "/></g></g></g><g fill="#545454" fill-opacity="1"><g transform="translate(267.437028, 428.818699)"><g><path d="M 34.015625 -8.703125 C 34.015625 -4.804688 34.59375 -1.929688 35.75 -0.078125 C 34.84375 0.273438 34 0.523438 33.21875 0.671875 C 32.445312 0.828125 31.632812 0.90625 30.78125 0.90625 C 28.976562 0.90625 27.613281 0.554688 26.6875 -0.140625 C 25.769531 -0.847656 25.1875 -1.851562 24.9375 -3.15625 C 23.832031 -2 22.378906 -1.019531 20.578125 -0.21875 C 18.773438 0.570312 16.570312 0.96875 13.96875 0.96875 C 12.613281 0.96875 11.257812 0.78125 9.90625 0.40625 C 8.5625 0.03125 7.335938 -0.578125 6.234375 -1.421875 C 5.128906 -2.273438 4.226562 -3.414062 3.53125 -4.84375 C 2.832031 -6.269531 2.484375 -8.007812 2.484375 -10.0625 C 2.484375 -12.613281 3.09375 -14.691406 4.3125 -16.296875 C 5.539062 -17.898438 7.082031 -19.164062 8.9375 -20.09375 C 10.789062 -21.019531 12.789062 -21.65625 14.9375 -22 C 17.09375 -22.351562 19.070312 -22.578125 20.875 -22.671875 C 21.476562 -22.722656 22.066406 -22.75 22.640625 -22.75 C 23.210938 -22.75 23.75 -22.75 24.25 -22.75 L 24.25 -24.109375 C 24.25 -26.003906 23.734375 -27.351562 22.703125 -28.15625 C 21.679688 -28.957031 20.019531 -29.359375 17.71875 -29.359375 C 15.570312 -29.359375 13.660156 -29.007812 11.984375 -28.3125 C 10.304688 -27.613281 8.664062 -26.8125 7.0625 -25.90625 C 6.351562 -26.757812 5.785156 -27.695312 5.359375 -28.71875 C 4.941406 -29.75 4.734375 -30.515625 4.734375 -31.015625 C 4.734375 -31.660156 5.117188 -32.320312 5.890625 -33 C 6.671875 -33.675781 7.734375 -34.273438 9.078125 -34.796875 C 10.429688 -35.328125 11.984375 -35.753906 13.734375 -36.078125 C 15.492188 -36.410156 17.347656 -36.578125 19.296875 -36.578125 C 22.003906 -36.578125 24.296875 -36.300781 26.171875 -35.75 C 28.046875 -35.195312 29.570312 -34.34375 30.75 -33.1875 C 31.925781 -32.039062 32.765625 -30.601562 33.265625 -28.875 C 33.765625 -27.144531 34.015625 -25.128906 34.015625 -22.828125 Z M 24.40625 -17.421875 C 24.050781 -17.421875 23.695312 -17.421875 23.34375 -17.421875 C 23 -17.421875 22.648438 -17.394531 22.296875 -17.34375 C 21.046875 -17.25 19.804688 -17.085938 18.578125 -16.859375 C 17.359375 -16.628906 16.269531 -16.273438 15.3125 -15.796875 C 14.363281 -15.328125 13.585938 -14.691406 12.984375 -13.890625 C 12.390625 -13.085938 12.09375 -12.0625 12.09375 -10.8125 C 12.09375 -9.40625 12.492188 -8.210938 13.296875 -7.234375 C 14.097656 -6.265625 15.445312 -5.78125 17.34375 -5.78125 C 18.289062 -5.78125 19.191406 -5.90625 20.046875 -6.15625 C 20.898438 -6.40625 21.648438 -6.726562 22.296875 -7.125 C 22.953125 -7.53125 23.46875 -7.96875 23.84375 -8.4375 C 24.21875 -8.914062 24.40625 -9.359375 24.40625 -9.765625 Z M 24.40625 -17.421875 "/></g></g></g><g fill="#545454" fill-opacity="1"><g transform="translate(306.258601, 428.818699)"><g><path d="M 15.09375 0 L 4.8125 0 L 4.8125 -35.515625 L 5.703125 -35.671875 C 6.003906 -35.722656 6.351562 -35.757812 6.75 -35.78125 C 7.15625 -35.800781 7.632812 -35.8125 8.1875 -35.8125 C 9.789062 -35.8125 11.179688 -35.523438 12.359375 -34.953125 C 13.535156 -34.378906 14.269531 -33.367188 14.5625 -31.921875 C 15.414062 -33.066406 16.71875 -34.128906 18.46875 -35.109375 C 20.21875 -36.085938 22.597656 -36.578125 25.609375 -36.578125 C 29.160156 -36.578125 31.785156 -35.875 33.484375 -34.46875 C 35.191406 -33.0625 36.296875 -31.207031 36.796875 -28.90625 C 37.046875 -27.757812 37.207031 -26.507812 37.28125 -25.15625 C 37.351562 -23.800781 37.390625 -22.472656 37.390625 -21.171875 L 37.390625 0 L 27.1875 0 L 27.1875 -20.71875 C 27.1875 -21.820312 27.144531 -22.847656 27.0625 -23.796875 C 26.988281 -24.753906 26.789062 -25.570312 26.46875 -26.25 C 26.144531 -26.925781 25.617188 -27.453125 24.890625 -27.828125 C 24.171875 -28.203125 23.160156 -28.390625 21.859375 -28.390625 C 20.003906 -28.390625 18.410156 -28 17.078125 -27.21875 C 15.753906 -26.445312 15.09375 -25.484375 15.09375 -24.328125 Z M 15.09375 0 "/></g></g></g><g fill="#545454" fill-opacity="1"><g transform="translate(348.459226, 428.818699)"><g><path d="M 36.71875 -2.78125 C 36.71875 0.175781 36.429688 2.867188 35.859375 5.296875 C 35.285156 7.722656 34.285156 9.8125 32.859375 11.5625 C 31.429688 13.3125 29.539062 14.660156 27.1875 15.609375 C 24.832031 16.566406 21.878906 17.046875 18.328125 17.046875 C 15.316406 17.046875 12.847656 16.816406 10.921875 16.359375 C 8.992188 15.910156 7.457031 15.363281 6.3125 14.71875 C 5.3125 14.164062 4.671875 13.585938 4.390625 12.984375 C 4.117188 12.390625 3.984375 11.816406 3.984375 11.265625 C 3.984375 10.460938 4.304688 9.519531 4.953125 8.4375 C 5.609375 7.363281 6.257812 6.40625 6.90625 5.5625 C 7.257812 5.90625 7.75 6.300781 8.375 6.75 C 9 7.207031 9.757812 7.644531 10.65625 8.0625 C 11.5625 8.488281 12.578125 8.851562 13.703125 9.15625 C 14.828125 9.457031 16.066406 9.609375 17.421875 9.609375 C 19.367188 9.609375 20.957031 9.34375 22.1875 8.8125 C 23.414062 8.289062 24.378906 7.539062 25.078125 6.5625 C 25.773438 5.59375 26.257812 4.40625 26.53125 3 C 26.8125 1.601562 26.953125 0.00390625 26.953125 -1.796875 L 26.953125 -3.15625 C 26.253906 -2.300781 25.140625 -1.507812 23.609375 -0.78125 C 22.085938 -0.0625 20.125 0.296875 17.71875 0.296875 C 15.863281 0.296875 14.070312 0.0078125 12.34375 -0.5625 C 10.625 -1.132812 9.085938 -2.117188 7.734375 -3.515625 C 6.378906 -4.921875 5.300781 -6.765625 4.5 -9.046875 C 3.695312 -11.328125 3.296875 -14.171875 3.296875 -17.578125 C 3.296875 -21.023438 3.707031 -23.953125 4.53125 -26.359375 C 5.363281 -28.765625 6.46875 -30.726562 7.84375 -32.25 C 9.21875 -33.78125 10.796875 -34.882812 12.578125 -35.5625 C 14.359375 -36.238281 16.222656 -36.578125 18.171875 -36.578125 C 20.421875 -36.578125 22.257812 -36.195312 23.6875 -35.4375 C 25.113281 -34.6875 26.226562 -33.738281 27.03125 -32.59375 C 27.4375 -33.738281 28.1875 -34.5625 29.28125 -35.0625 C 30.382812 -35.5625 31.660156 -35.8125 33.109375 -35.8125 C 33.515625 -35.8125 33.941406 -35.800781 34.390625 -35.78125 C 34.835938 -35.757812 35.238281 -35.722656 35.59375 -35.671875 L 36.71875 -35.515625 Z M 13.8125 -18.171875 C 13.8125 -14.671875 14.335938 -11.90625 15.390625 -9.875 C 16.441406 -7.84375 18.421875 -6.828125 21.328125 -6.828125 C 23.078125 -6.828125 24.453125 -7.164062 25.453125 -7.84375 C 26.453125 -8.519531 26.953125 -9.410156 26.953125 -10.515625 L 26.953125 -26.578125 C 26.554688 -26.984375 25.867188 -27.460938 24.890625 -28.015625 C 23.910156 -28.566406 22.773438 -28.84375 21.484375 -28.84375 C 16.367188 -28.84375 13.8125 -25.285156 13.8125 -18.171875 Z M 13.8125 -18.171875 "/></g></g></g><g fill="#545454" fill-opacity="1"><g transform="translate(389.984015, 428.818699)"><g><path d="M 37.328125 0 L 30.484375 0 C 29.234375 0 28.445312 -0.335938 28.125 -1.015625 C 27.800781 -1.691406 27.640625 -2.679688 27.640625 -3.984375 C 26.785156 -2.828125 25.476562 -1.757812 23.71875 -0.78125 C 21.96875 0.1875 19.59375 0.671875 16.59375 0.671875 C 13.039062 0.671875 10.410156 -0.0234375 8.703125 -1.421875 C 7.003906 -2.828125 5.90625 -4.679688 5.40625 -6.984375 C 5.15625 -8.128906 4.992188 -9.378906 4.921875 -10.734375 C 4.847656 -12.085938 4.8125 -13.414062 4.8125 -14.71875 L 4.8125 -35.515625 C 4.90625 -35.566406 5.300781 -35.628906 6 -35.703125 C 6.707031 -35.773438 7.460938 -35.8125 8.265625 -35.8125 C 9.066406 -35.8125 9.863281 -35.738281 10.65625 -35.59375 C 11.457031 -35.445312 12.179688 -35.160156 12.828125 -34.734375 C 13.484375 -34.304688 14.007812 -33.703125 14.40625 -32.921875 C 14.8125 -32.148438 15.015625 -31.140625 15.015625 -29.890625 L 15.015625 -15.171875 C 15.015625 -14.015625 15.050781 -12.972656 15.125 -12.046875 C 15.207031 -11.117188 15.410156 -10.316406 15.734375 -9.640625 C 16.054688 -8.972656 16.578125 -8.453125 17.296875 -8.078125 C 18.023438 -7.703125 19.039062 -7.515625 20.34375 -7.515625 C 22.195312 -7.515625 23.785156 -7.898438 25.109375 -8.671875 C 26.441406 -9.453125 27.109375 -10.414062 27.109375 -11.5625 L 27.109375 -35.515625 C 27.210938 -35.566406 27.613281 -35.628906 28.3125 -35.703125 C 29.007812 -35.773438 29.757812 -35.8125 30.5625 -35.8125 C 31.363281 -35.8125 32.164062 -35.722656 32.96875 -35.546875 C 33.769531 -35.378906 34.492188 -35.054688 35.140625 -34.578125 C 35.796875 -34.109375 36.320312 -33.457031 36.71875 -32.625 C 37.125 -31.800781 37.328125 -30.765625 37.328125 -29.515625 Z M 37.328125 0 "/></g></g></g><g fill="#545454" fill-opacity="1"><g transform="translate(432.109556, 428.818699)"><g><path d="M 23.28125 -6.390625 C 24.53125 -6.390625 25.628906 -6.523438 26.578125 -6.796875 C 27.535156 -7.066406 28.390625 -7.398438 29.140625 -7.796875 C 29.890625 -8.203125 30.539062 -8.644531 31.09375 -9.125 C 31.644531 -9.601562 32.144531 -10.039062 32.59375 -10.4375 C 33.1875 -9.6875 33.804688 -8.722656 34.453125 -7.546875 C 35.109375 -6.367188 35.4375 -5.40625 35.4375 -4.65625 C 35.4375 -3.550781 34.8125 -2.550781 33.5625 -1.65625 C 32.507812 -0.851562 31.019531 -0.164062 29.09375 0.40625 C 27.164062 0.988281 24.898438 1.28125 22.296875 1.28125 C 19.941406 1.28125 17.625 0.976562 15.34375 0.375 C 13.070312 -0.226562 11.046875 -1.28125 9.265625 -2.78125 C 7.492188 -4.28125 6.054688 -6.289062 4.953125 -8.8125 C 3.847656 -11.34375 3.296875 -14.535156 3.296875 -18.390625 C 3.296875 -21.546875 3.785156 -24.265625 4.765625 -26.546875 C 5.742188 -28.828125 7.046875 -30.71875 8.671875 -32.21875 C 10.296875 -33.71875 12.132812 -34.816406 14.1875 -35.515625 C 16.238281 -36.222656 18.34375 -36.578125 20.5 -36.578125 C 23.300781 -36.578125 25.675781 -36.132812 27.625 -35.25 C 29.582031 -34.375 31.175781 -33.195312 32.40625 -31.71875 C 33.632812 -30.25 34.519531 -28.5625 35.0625 -26.65625 C 35.613281 -24.757812 35.890625 -22.757812 35.890625 -20.65625 C 35.890625 -20.351562 35.890625 -20 35.890625 -19.59375 C 35.890625 -19.195312 35.875 -18.769531 35.84375 -18.3125 C 35.820312 -17.863281 35.800781 -17.425781 35.78125 -17 C 35.757812 -16.582031 35.722656 -16.25 35.671875 -16 L 13.59375 -16 C 13.789062 -13.238281 14.640625 -10.945312 16.140625 -9.125 C 17.640625 -7.300781 20.019531 -6.390625 23.28125 -6.390625 Z M 26.65625 -21.625 C 26.65625 -24.03125 26.191406 -25.984375 25.265625 -27.484375 C 24.335938 -28.984375 22.675781 -29.734375 20.28125 -29.734375 C 18.175781 -29.734375 16.519531 -29.019531 15.3125 -27.59375 C 14.113281 -26.164062 13.515625 -24.175781 13.515625 -21.625 Z M 26.65625 -21.625 "/></g></g></g><g fill="#545454" fill-opacity="1"><g transform="translate(470.705837, 428.818699)"><g><path d="M 14.5625 -31.984375 C 14.863281 -32.441406 15.273438 -32.941406 15.796875 -33.484375 C 16.328125 -34.035156 16.941406 -34.535156 17.640625 -34.984375 C 18.347656 -35.441406 19.140625 -35.820312 20.015625 -36.125 C 20.890625 -36.425781 21.828125 -36.578125 22.828125 -36.578125 C 23.429688 -36.578125 24.066406 -36.523438 24.734375 -36.421875 C 25.410156 -36.316406 26.035156 -36.125 26.609375 -35.84375 C 27.191406 -35.570312 27.65625 -35.195312 28 -34.71875 C 28.351562 -34.25 28.53125 -33.664062 28.53125 -32.96875 C 28.53125 -31.914062 28.253906 -30.660156 27.703125 -29.203125 C 27.160156 -27.753906 26.613281 -26.53125 26.0625 -25.53125 C 25.207031 -26.226562 24.351562 -26.765625 23.5 -27.140625 C 22.65625 -27.515625 21.65625 -27.703125 20.5 -27.703125 C 18.945312 -27.703125 17.644531 -27.25 16.59375 -26.34375 C 15.539062 -25.445312 15.015625 -24.375 15.015625 -23.125 L 15.015625 0 L 4.8125 0 L 4.8125 -35.515625 L 5.703125 -35.671875 C 6.003906 -35.722656 6.351562 -35.757812 6.75 -35.78125 C 7.15625 -35.800781 7.632812 -35.8125 8.1875 -35.8125 C 9.789062 -35.8125 11.179688 -35.5 12.359375 -34.875 C 13.535156 -34.25 14.269531 -33.285156 14.5625 -31.984375 Z M 14.5625 -31.984375 "/></g></g></g><g fill="#545454" fill-opacity="1"><g transform="translate(499.240046, 428.818699)"><g><path d="M 34.015625 -8.703125 C 34.015625 -4.804688 34.59375 -1.929688 35.75 -0.078125 C 34.84375 0.273438 34 0.523438 33.21875 0.671875 C 32.445312 0.828125 31.632812 0.90625 30.78125 0.90625 C 28.976562 0.90625 27.613281 0.554688 26.6875 -0.140625 C 25.769531 -0.847656 25.1875 -1.851562 24.9375 -3.15625 C 23.832031 -2 22.378906 -1.019531 20.578125 -0.21875 C 18.773438 0.570312 16.570312 0.96875 13.96875 0.96875 C 12.613281 0.96875 11.257812 0.78125 9.90625 0.40625 C 8.5625 0.03125 7.335938 -0.578125 6.234375 -1.421875 C 5.128906 -2.273438 4.226562 -3.414062 3.53125 -4.84375 C 2.832031 -6.269531 2.484375 -8.007812 2.484375 -10.0625 C 2.484375 -12.613281 3.09375 -14.691406 4.3125 -16.296875 C 5.539062 -17.898438 7.082031 -19.164062 8.9375 -20.09375 C 10.789062 -21.019531 12.789062 -21.65625 14.9375 -22 C 17.09375 -22.351562 19.070312 -22.578125 20.875 -22.671875 C 21.476562 -22.722656 22.066406 -22.75 22.640625 -22.75 C 23.210938 -22.75 23.75 -22.75 24.25 -22.75 L 24.25 -24.109375 C 24.25 -26.003906 23.734375 -27.351562 22.703125 -28.15625 C 21.679688 -28.957031 20.019531 -29.359375 17.71875 -29.359375 C 15.570312 -29.359375 13.660156 -29.007812 11.984375 -28.3125 C 10.304688 -27.613281 8.664062 -26.8125 7.0625 -25.90625 C 6.351562 -26.757812 5.785156 -27.695312 5.359375 -28.71875 C 4.941406 -29.75 4.734375 -30.515625 4.734375 -31.015625 C 4.734375 -31.660156 5.117188 -32.320312 5.890625 -33 C 6.671875 -33.675781 7.734375 -34.273438 9.078125 -34.796875 C 10.429688 -35.328125 11.984375 -35.753906 13.734375 -36.078125 C 15.492188 -36.410156 17.347656 -36.578125 19.296875 -36.578125 C 22.003906 -36.578125 24.296875 -36.300781 26.171875 -35.75 C 28.046875 -35.195312 29.570312 -34.34375 30.75 -33.1875 C 31.925781 -32.039062 32.765625 -30.601562 33.265625 -28.875 C 33.765625 -27.144531 34.015625 -25.128906 34.015625 -22.828125 Z M 24.40625 -17.421875 C 24.050781 -17.421875 23.695312 -17.421875 23.34375 -17.421875 C 23 -17.421875 22.648438 -17.394531 22.296875 -17.34375 C 21.046875 -17.25 19.804688 -17.085938 18.578125 -16.859375 C 17.359375 -16.628906 16.269531 -16.273438 15.3125 -15.796875 C 14.363281 -15.328125 13.585938 -14.691406 12.984375 -13.890625 C 12.390625 -13.085938 12.09375 -12.0625 12.09375 -10.8125 C 12.09375 -9.40625 12.492188 -8.210938 13.296875 -7.234375 C 14.097656 -6.265625 15.445312 -5.78125 17.34375 -5.78125 C 18.289062 -5.78125 19.191406 -5.90625 20.046875 -6.15625 C 20.898438 -6.40625 21.648438 -6.726562 22.296875 -7.125 C 22.953125 -7.53125 23.46875 -7.96875 23.84375 -8.4375 C 24.21875 -8.914062 24.40625 -9.359375 24.40625 -9.765625 Z M 24.40625 -17.421875 "/></g></g></g></svg>