<svg version="1.1" id="Layer_1" xmlns="http://www.w3.org/2000/svg" xmlns:xlink="http://www.w3.org/1999/xlink" x="0px" y="0px"
	 width="100%" viewBox="0 0 1181 472" enable-background="new 0 0 1181 472" xml:space="preserve">
<path fill="#FFFFFF" opacity="1.000000" stroke="none" 
	d="
M821.000000,473.000000 
	C547.333374,473.000000 274.166718,473.000000 1.000073,473.000000 
	C1.000049,315.666718 1.000049,158.333435 1.000024,1.000116 
	C394.666595,1.000077 788.333191,1.000077 1181.999756,1.000039 
	C1181.999878,158.333206 1181.999878,315.666412 1182.000000,472.999817 
	C1061.833374,473.000000 941.666687,473.000000 821.000000,473.000000 
M177.656113,253.966476 
	C178.347946,253.523041 179.039780,253.079605 180.361740,252.813782 
	C180.908096,252.486969 181.454453,252.160172 182.656113,251.966492 
	C183.347961,251.523056 184.039795,251.079620 185.506348,250.808868 
	C205.996429,244.891434 226.372910,238.531784 247.020599,233.227875 
	C258.784698,230.205978 270.991577,228.907745 283.725800,226.744705 
	C287.666046,225.574783 288.611877,223.669144 286.423767,219.732620 
	C280.184967,208.508835 274.249695,197.113724 268.343628,185.709015 
	C266.262024,181.689423 263.303925,180.539780 259.215912,182.034454 
	C246.153168,186.810608 232.848785,191.041809 220.125977,196.600937 
	C205.962738,202.789459 190.929184,208.868118 181.084167,221.030121 
	C171.989563,232.265137 165.679367,245.769791 158.317398,258.376770 
	C157.040894,260.562775 158.572052,261.322845 161.593536,260.811737 
	C162.062393,260.485626 162.531250,260.159515 163.722778,259.964905 
	C165.723206,258.845154 167.723633,257.725403 170.350067,256.807190 
	C170.900314,256.482574 171.450562,256.157990 172.656097,255.966507 
	C173.347946,255.523087 174.039795,255.079666 175.361755,254.813782 
	C175.908112,254.486969 176.454453,254.160156 177.656113,253.966476 
M238.674332,297.008453 
	C232.258667,298.092773 225.777298,298.885742 219.439316,300.314636 
	C198.271896,305.086914 177.073090,309.763092 156.054047,315.132629 
	C145.122406,317.925262 134.545044,322.102692 123.803040,325.640533 
	C120.255592,326.808868 116.907516,334.330811 118.138924,338.115448 
	C119.532341,342.398041 123.155846,343.965088 127.318016,343.967743 
	C197.759277,344.012543 268.200592,344.020966 338.641846,343.971130 
	C346.792389,343.965363 350.266541,338.248016 346.550049,331.083649 
	C341.018982,320.421143 335.170624,309.921967 329.720215,299.219391 
	C326.008087,291.930237 322.449493,284.920593 312.225891,288.984894 
	C311.938202,289.099243 311.563599,288.976257 311.232727,289.003357 
	C298.961273,290.008667 286.660095,290.747559 274.427795,292.106262 
	C262.770416,293.401123 251.184982,295.343292 238.674332,297.008453 
M778.335693,339.944702 
	C792.577698,332.663971 801.205872,320.838379 801.747253,305.132751 
	C802.664856,278.515869 801.985840,251.844391 802.022522,225.195923 
	C802.025940,222.746613 801.537537,221.549316 798.648376,220.864243 
	C786.357483,217.949799 773.927734,216.500107 761.588928,219.191162 
	C751.721313,221.343231 743.630188,226.643326 739.922729,236.978943 
	C733.928467,253.689392 734.050659,270.514465 740.237244,286.884430 
	C743.878357,296.518982 751.611145,302.953735 762.384705,303.886963 
	C769.390686,304.493866 776.491882,304.001282 784.817139,304.001282 
	C783.365540,308.241669 782.592773,313.183044 780.166077,317.099762 
	C771.888489,330.460114 758.743347,333.480957 744.000000,331.823517 
	C744.000000,334.047028 744.184631,335.407654 743.969238,336.701721 
	C742.839783,343.486877 747.932800,346.316833 753.140198,345.845276 
	C761.490845,345.088989 770.160461,345.022034 778.335693,339.944702 
M422.512512,298.015594 
	C423.128418,300.315125 423.744354,302.614685 424.382385,304.996674 
	C429.049194,304.996674 433.377625,305.126495 437.694031,304.954437 
	C440.978577,304.823547 442.740723,303.826355 441.418243,299.680176 
	C435.658386,281.622559 430.227570,263.459686 424.711151,245.324722 
	C419.053864,226.726669 413.408936,208.124741 407.826996,189.503998 
	C406.871338,186.316055 405.459991,184.204071 401.647888,184.959778 
	C400.365173,185.214081 398.970673,185.144501 397.659973,184.973022 
	C393.661896,184.449951 391.984161,186.124466 390.828583,190.074860 
	C385.098846,209.661789 378.968445,229.131485 372.987152,248.644882 
	C367.383881,266.924927 361.790466,285.207977 355.730347,304.999756 
	C360.781403,304.999756 365.295288,304.921265 369.804779,305.027985 
	C372.707855,305.096649 374.294220,304.030670 375.096130,301.072571 
	C377.453339,292.377167 380.083496,283.755737 382.637390,275.000427 
	C392.782227,275.000427 402.774963,274.903259 412.761261,275.113159 
	C414.139343,275.142120 416.340729,276.424103 416.704559,277.583160 
	C418.741974,284.074036 420.332245,290.705292 422.512512,298.015594 
M523.000000,292.489166 
	C523.000000,296.587067 523.000000,300.684967 523.000000,305.375641 
	C529.036255,304.823578 534.369446,304.335815 540.000000,303.820862 
	C540.000000,282.639252 539.999878,261.835907 540.000183,241.032562 
	C540.000244,235.430298 542.018860,233.043045 547.641663,232.016403 
	C548.758240,231.812515 549.905029,231.740280 551.000977,231.461960 
	C559.114868,229.401413 564.983215,233.908829 564.992981,242.312042 
	C565.015259,261.476074 565.000000,280.640167 565.000000,299.804230 
	C565.000000,301.416718 565.000000,303.029205 565.000000,305.400116 
	C569.954712,304.893768 574.317993,304.175232 578.693420,304.090820 
	C581.935303,304.028351 583.067078,302.976746 583.051514,299.713898 
	C582.950378,278.550598 583.153381,257.385040 582.942627,236.223328 
	C582.814087,223.323746 573.229553,215.076721 561.032471,217.107727 
	C554.399597,218.212189 547.854309,219.842087 540.381592,221.422806 
	C540.381592,207.507401 540.381592,193.324951 540.381592,179.067169 
	C536.326599,179.436874 533.241882,179.902451 530.149353,179.962387 
	C523.329834,180.094589 523.002319,180.320908 523.001648,187.005844 
	C522.998108,221.834457 523.000000,256.663055 523.000000,292.489166 
M1008.374207,223.095505 
	C1005.358337,227.649231 1007.077087,231.699768 1009.238281,235.236496 
	C1014.431702,234.428741 1019.217407,233.506927 1024.046143,232.982895 
	C1028.947876,232.450943 1033.890137,232.115860 1038.818726,232.060501 
	C1042.957764,232.014008 1046.341919,233.831482 1047.024048,238.253082 
	C1047.763672,243.047928 1047.911865,247.934052 1048.252686,252.000092 
	C1041.475342,252.000092 1035.536377,251.606491 1029.669922,252.089844 
	C1020.245422,252.866318 1010.768677,255.910049 1008.416565,267.470428 
	C1007.084717,274.016235 1006.471252,281.021393 1007.271729,287.608490 
	C1008.269165,295.817383 1012.563354,303.036957 1021.436523,304.846161 
	C1035.004272,307.612549 1048.525391,306.505585 1061.586060,301.656525 
	C1062.627075,301.269958 1063.757812,299.703003 1063.899658,298.566437 
	C1064.468994,294.001160 1064.920898,289.391235 1064.953613,284.794464 
	C1065.070923,268.301819 1065.183594,251.804840 1064.917114,235.315659 
	C1064.796265,227.830475 1061.008545,220.816193 1052.018799,218.805115 
	C1043.027100,216.793549 1034.095947,217.678040 1025.215088,218.253693 
	C1019.732544,218.609070 1014.384216,221.037247 1008.374207,223.095505 
M651.000000,258.500000 
	C651.000000,250.677567 651.004822,242.855148 650.998657,235.032715 
	C650.992188,226.711563 647.323486,221.440323 639.376343,219.032486 
	C629.750122,216.115906 619.922485,217.627869 610.209534,218.480804 
	C605.748901,218.872498 601.285828,220.137909 597.019958,221.584961 
	C593.036072,222.936356 591.979553,225.659134 594.076721,232.827866 
	C595.289917,236.974640 598.030701,234.614838 600.634521,234.286057 
	C608.922302,233.239487 617.265747,232.455536 625.610168,232.106171 
	C630.343750,231.907990 633.797546,235.229645 633.957581,239.295990 
	C634.132690,243.746140 633.997437,248.208496 633.997437,252.000031 
	C627.635254,252.000031 621.742493,251.702805 615.890442,252.064194 
	C604.945923,252.740067 597.877197,256.903076 594.519897,268.014526 
	C591.989075,276.390503 592.383362,284.877869 595.137512,293.095917 
	C596.788025,298.020935 599.882446,302.908783 605.156677,303.761261 
	C614.013611,305.192871 623.114807,306.024445 632.059387,305.685791 
	C638.133057,305.455811 644.114746,302.794678 651.000000,300.995361 
	C651.000000,286.631165 651.000000,273.065582 651.000000,258.500000 
M919.189209,217.992584 
	C904.784424,217.083359 895.522827,226.142532 892.276062,234.824921 
	C886.258667,250.916092 885.276550,267.717896 889.087097,284.551666 
	C891.238953,294.057617 895.900146,302.024506 906.184265,304.577698 
	C917.411621,307.365143 928.736572,306.697296 939.788940,303.581879 
	C946.210266,301.771881 949.146118,295.286835 946.806824,289.056671 
	C946.475830,288.174957 944.181946,287.296967 943.075317,287.565613 
	C938.059326,288.783173 933.208923,290.702942 928.178894,291.838318 
	C914.192871,294.995209 903.240845,284.485992 905.472900,270.780182 
	C918.059631,269.848083 930.532227,268.850769 943.017822,268.059875 
	C945.625183,267.894714 946.670776,267.236084 947.120300,264.418243 
	C948.678223,254.653534 949.767151,244.903732 947.933044,235.094070 
	C945.712769,223.218811 931.023804,214.259766 919.189209,217.992584 
M722.110535,226.554474 
	C720.542480,224.979431 719.131104,223.198090 717.378174,221.866409 
	C711.082520,217.083694 703.242920,217.287476 696.205322,217.356247 
	C687.382324,217.442444 678.591431,220.131500 669.772278,221.611740 
	C666.117554,222.225189 664.847351,223.924026 664.885010,227.884918 
	C665.115112,252.048416 664.995789,276.215210 665.010559,300.380920 
	C665.011475,301.825073 665.164673,303.269165 665.263062,304.994202 
	C668.382446,304.994202 671.208374,305.210632 673.990479,304.953186 
	C682.006775,304.211426 681.999939,304.136353 682.000000,296.145325 
	C682.000061,278.979340 682.000000,261.813354 682.000000,244.647385 
	C682.000000,232.876144 681.971741,232.670380 693.888123,231.034943 
	C701.476440,229.993484 707.122681,231.092560 707.040405,241.991608 
	C706.895813,261.156403 707.000000,280.323090 707.000000,299.488983 
	C707.000000,301.250824 707.000000,303.012695 707.000000,305.396454 
	C713.372803,304.846222 719.039246,304.356995 725.000000,303.842346 
	C725.000000,281.633209 725.107971,259.826630 724.893738,238.023254 
	C724.858032,234.386246 723.421204,230.762985 722.110535,226.554474 
M870.456177,302.001251 
	C874.452454,301.436432 875.090820,298.889526 875.068726,295.275940 
	C874.931885,272.949982 875.000000,250.622757 875.000000,228.295959 
	C875.000000,225.339523 875.000000,222.383087 875.000000,219.000137 
	C870.931030,219.000137 867.303406,219.110306 863.685425,218.970688 
	C859.680847,218.816162 857.831909,219.979370 857.892029,224.582443 
	C858.146545,244.073425 858.000061,263.569641 858.000000,283.063934 
	C858.000000,291.044891 857.999878,291.044891 850.381897,292.816833 
	C838.352966,295.614716 832.000122,290.659515 832.000000,278.478241 
	C831.999817,260.483521 832.000000,242.488770 832.000000,224.494034 
	C832.000000,222.735641 832.000000,220.977264 832.000000,219.000259 
	C827.680176,219.000259 824.030640,219.024780 820.381470,218.993896 
	C816.047729,218.957214 813.789185,220.467651 813.919067,225.406738 
	C814.446960,245.490082 814.644958,265.581940 815.010010,285.669800 
	C815.169434,294.437531 821.491211,303.275085 829.871765,304.775909 
	C843.245789,307.171051 856.650452,306.982422 870.456177,302.001251 
M487.888550,232.399338 
	C489.259033,236.453857 491.717133,240.482864 491.812958,244.567291 
	C492.242554,262.883148 492.000000,281.214752 492.000000,299.540680 
	C492.000000,301.298401 492.000000,303.056122 492.000000,305.382874 
	C498.068726,304.826324 503.401947,304.337219 508.998016,303.824005 
	C508.998016,280.438507 509.115601,257.471069 508.928284,234.506073 
	C508.869965,227.357315 504.549103,221.560303 497.343689,219.977112 
	C490.679321,218.512772 483.632019,217.818665 476.832153,218.198013 
	C468.932251,218.638748 461.137909,220.758316 453.257904,221.866013 
	C449.658295,222.372009 448.917999,224.154022 448.934479,227.478073 
	C449.055725,251.967575 448.995575,276.457947 449.012939,300.948059 
	C449.013855,302.220764 449.201294,303.493347 449.347107,305.338470 
	C455.008850,304.822296 460.340515,304.336243 466.047150,303.815979 
	C466.047150,280.054962 466.047150,256.628601 466.047150,233.481873 
	C473.258148,230.980560 480.086975,229.191574 487.888550,232.399338 
M248.032043,249.172409 
	C253.524826,259.119659 259.171082,268.986633 264.437714,279.052185 
	C266.662201,283.303589 270.090485,284.286926 274.193756,283.881104 
	C286.219391,282.691650 298.233307,281.370758 310.232697,279.941101 
	C312.356781,279.688019 315.333374,279.236938 316.187500,277.828735 
	C316.978912,276.523926 315.868134,273.593506 314.883301,271.761536 
	C309.424896,261.608185 303.506104,251.696991 298.225891,241.454926 
	C294.088715,233.430054 292.825928,234.370438 285.180756,235.232834 
	C274.076752,236.485352 263.122925,239.050491 252.093201,240.988358 
	C247.138626,241.858887 246.287781,243.247849 248.032043,249.172409 
M208.065765,264.602631 
	C210.143311,260.626770 212.220856,256.650940 214.884369,251.553696 
	C211.476822,252.163834 209.176895,252.226822 207.143539,252.995239 
	C191.565369,258.882385 175.990829,264.785767 160.521240,270.950317 
	C154.638046,273.294708 148.737305,275.915771 145.475708,282.003510 
	C141.333923,289.734100 137.050079,297.390472 133.030060,305.183350 
	C131.856720,307.457855 131.374481,310.088837 130.397705,313.105438 
	C149.521255,307.922577 167.430771,302.966248 185.408813,298.272247 
	C189.619095,297.172974 192.111389,294.784332 194.041458,291.072266 
	C198.537186,282.425812 203.291901,273.914032 208.065765,264.602631 
M207.476044,167.042496 
	C202.675674,175.926605 197.810287,184.776657 193.122650,193.719849 
	C192.011002,195.840652 191.495438,198.273895 190.309158,201.712982 
	C192.623749,200.796661 193.538239,200.540497 194.350235,200.096786 
	C202.487106,195.650421 210.303574,190.450485 218.805389,186.879669 
	C230.582077,181.933350 242.891251,178.262833 254.925018,173.914856 
	C257.867188,172.851822 260.209137,171.217194 258.091705,167.360504 
	C251.746994,155.804321 245.688293,144.087570 239.164612,132.634750 
	C236.104004,127.261650 229.892105,127.346413 226.730453,132.791031 
	C220.276443,143.905273 214.219971,155.250351 207.476044,167.042496 
M960.000000,277.500000 
	C960.000000,286.585846 960.000000,295.671692 960.000000,305.370605 
	C966.009094,304.822510 971.336243,304.336609 976.997803,303.820221 
	C976.997803,280.753662 976.997803,258.015594 976.997803,235.610580 
	C984.461060,230.995361 991.878845,231.081100 999.759827,233.633347 
	C1000.469055,231.455505 1001.408936,229.212723 1001.914001,226.875931 
	C1002.796509,222.793228 999.614136,218.585403 995.335022,218.024734 
	C984.286560,216.577087 973.747253,218.261414 963.631592,223.005859 
	C960.836548,224.316803 959.896545,226.001602 959.927124,229.080185 
	C960.084473,244.885468 960.000000,260.693146 960.000000,277.500000 
z"/>
<path fill="#E74011" opacity="1.000000" stroke="none" 
	d="
M239.121124,297.004669 
	C251.184982,295.343292 262.770416,293.401123 274.427795,292.106262 
	C286.660095,290.747559 298.961273,290.008667 311.232727,289.003357 
	C311.563599,288.976257 311.938202,289.099243 312.225891,288.984894 
	C322.449493,284.920593 326.008087,291.930237 329.720215,299.219391 
	C335.170624,309.921967 341.018982,320.421143 346.550049,331.083649 
	C350.266541,338.248016 346.792389,343.965363 338.641846,343.971130 
	C268.200592,344.020966 197.759277,344.012543 127.318016,343.967743 
	C123.155846,343.965088 119.532341,342.398041 118.138924,338.115448 
	C116.907516,334.330811 120.255592,326.808868 123.803040,325.640533 
	C134.545044,322.102692 145.122406,317.925262 156.054047,315.132629 
	C177.073090,309.763092 198.271896,305.086914 219.439316,300.314636 
	C225.777298,298.885742 232.258667,298.092773 239.121124,297.004669 
z"/>
<path fill="#575756" opacity="1.000000" stroke="none" 
	d="
M777.958618,340.009064 
	C770.160461,345.022034 761.490845,345.088989 753.140198,345.845276 
	C747.932800,346.316833 742.839783,343.486877 743.969238,336.701721 
	C744.184631,335.407654 744.000000,334.047028 744.000000,331.823517 
	C758.743347,333.480957 771.888489,330.460114 780.166077,317.099762 
	C782.592773,313.183044 783.365540,308.241669 784.817139,304.001282 
	C776.491882,304.001282 769.390686,304.493866 762.384705,303.886963 
	C751.611145,302.953735 743.878357,296.518982 740.237244,286.884430 
	C734.050659,270.514465 733.928467,253.689392 739.922729,236.978943 
	C743.630188,226.643326 751.721313,221.343231 761.588928,219.191162 
	C773.927734,216.500107 786.357483,217.949799 798.648376,220.864243 
	C801.537537,221.549316 802.025940,222.746613 802.022522,225.195923 
	C801.985840,251.844391 802.664856,278.515869 801.747253,305.132751 
	C801.205872,320.838379 792.577698,332.663971 777.958618,340.009064 
M784.000000,275.466125 
	C784.000000,264.307587 784.060730,253.148636 783.983276,241.990646 
	C783.902954,230.409912 785.580139,232.493637 773.908203,231.880905 
	C766.220398,231.477310 758.497314,236.338989 756.143738,243.866760 
	C752.369385,255.938416 752.044617,268.353546 756.283508,280.274017 
	C760.147278,291.139801 767.725403,292.181793 776.886169,290.548401 
	C782.046997,289.628235 785.190002,286.839294 784.041809,280.940002 
	C783.760681,279.495819 784.000000,277.950317 784.000000,275.466125 
z"/>
<path fill="#575756" opacity="1.000000" stroke="none" 
	d="
M422.293884,297.652100 
	C420.332245,290.705292 418.741974,284.074036 416.704559,277.583160 
	C416.340729,276.424103 414.139343,275.142120 412.761261,275.113159 
	C402.774963,274.903259 392.782227,275.000427 382.637390,275.000427 
	C380.083496,283.755737 377.453339,292.377167 375.096130,301.072571 
	C374.294220,304.030670 372.707855,305.096649 369.804779,305.027985 
	C365.295288,304.921265 360.781403,304.999756 355.730347,304.999756 
	C361.790466,285.207977 367.383881,266.924927 372.987152,248.644882 
	C378.968445,229.131485 385.098846,209.661789 390.828583,190.074860 
	C391.984161,186.124466 393.661896,184.449951 397.659973,184.973022 
	C398.970673,185.144501 400.365173,185.214081 401.647888,184.959778 
	C405.459991,184.204071 406.871338,186.316055 407.826996,189.503998 
	C413.408936,208.124741 419.053864,226.726669 424.711151,245.324722 
	C430.227570,263.459686 435.658386,281.622559 441.418243,299.680176 
	C442.740723,303.826355 440.978577,304.823547 437.694031,304.954437 
	C433.377625,305.126495 429.049194,304.996674 424.382385,304.996674 
	C423.744354,302.614685 423.128418,300.315125 422.293884,297.652100 
M409.999481,253.488220 
	C406.469116,240.296143 402.938751,227.104080 399.408386,213.912003 
	C396.698914,221.711990 394.890503,229.248093 392.994110,236.761978 
	C391.074799,244.366730 389.068420,251.949493 386.896576,260.327148 
	C395.605377,260.327148 403.686523,260.327148 411.952606,260.327148 
	C411.320038,258.302979 410.698059,256.312744 409.999481,253.488220 
z"/>
<path fill="#575756" opacity="1.000000" stroke="none" 
	d="
M523.000000,291.990417 
	C523.000000,256.663055 522.998108,221.834457 523.001648,187.005844 
	C523.002319,180.320908 523.329834,180.094589 530.149353,179.962387 
	C533.241882,179.902451 536.326599,179.436874 540.381592,179.067169 
	C540.381592,193.324951 540.381592,207.507401 540.381592,221.422806 
	C547.854309,219.842087 554.399597,218.212189 561.032471,217.107727 
	C573.229553,215.076721 582.814087,223.323746 582.942627,236.223328 
	C583.153381,257.385040 582.950378,278.550598 583.051514,299.713898 
	C583.067078,302.976746 581.935303,304.028351 578.693420,304.090820 
	C574.317993,304.175232 569.954712,304.893768 565.000000,305.400116 
	C565.000000,303.029205 565.000000,301.416718 565.000000,299.804230 
	C565.000000,280.640167 565.015259,261.476074 564.992981,242.312042 
	C564.983215,233.908829 559.114868,229.401413 551.000977,231.461960 
	C549.905029,231.740280 548.758240,231.812515 547.641663,232.016403 
	C542.018860,233.043045 540.000244,235.430298 540.000183,241.032562 
	C539.999878,261.835907 540.000000,282.639252 540.000000,303.820862 
	C534.369446,304.335815 529.036255,304.823578 523.000000,305.375641 
	C523.000000,300.684967 523.000000,296.587067 523.000000,291.990417 
z"/>
<path fill="#EE7203" opacity="1.000000" stroke="none" 
	d="
M182.000793,251.833359 
	C181.454453,252.160172 180.908096,252.486969 179.704376,252.536346 
	C178.364944,252.783737 177.682877,253.308548 177.000809,253.833359 
	C176.454453,254.160156 175.908112,254.486969 174.704407,254.536346 
	C173.364975,254.783737 172.682892,255.308548 172.000824,255.833374 
	C171.450562,256.157990 170.900314,256.482574 169.647552,256.515228 
	C166.963394,257.426636 164.981750,258.630005 163.000122,259.833374 
	C162.531250,260.159515 162.062393,260.485626 161.241592,260.370972 
	C160.968048,259.102112 160.805725,258.148682 161.161545,257.464935 
	C165.355011,249.406647 169.283768,241.179688 174.009415,233.441254 
	C176.697784,229.038940 180.185928,224.763031 184.234589,221.613846 
	C205.920334,204.745941 231.112915,195.044922 256.979889,186.753967 
	C261.265686,185.380280 263.025635,187.067429 264.776794,190.428101 
	C268.765564,198.083008 273.103058,205.557373 277.037567,213.238907 
	C279.289246,217.634903 281.028900,222.293167 282.999054,226.833344 
	C270.991577,228.907745 258.784698,230.205978 247.020599,233.227875 
	C226.372910,238.531784 205.996429,244.891434 184.776672,250.533890 
	C183.364944,250.783722 182.682861,251.308533 182.000793,251.833359 
z"/>
<path fill="#575756" opacity="1.000000" stroke="none" 
	d="
M1008.674927,222.815170 
	C1014.384216,221.037247 1019.732544,218.609070 1025.215088,218.253693 
	C1034.095947,217.678040 1043.027100,216.793549 1052.018799,218.805115 
	C1061.008545,220.816193 1064.796265,227.830475 1064.917114,235.315659 
	C1065.183594,251.804840 1065.070923,268.301819 1064.953613,284.794464 
	C1064.920898,289.391235 1064.468994,294.001160 1063.899658,298.566437 
	C1063.757812,299.703003 1062.627075,301.269958 1061.586060,301.656525 
	C1048.525391,306.505585 1035.004272,307.612549 1021.436523,304.846161 
	C1012.563354,303.036957 1008.269165,295.817383 1007.271729,287.608490 
	C1006.471252,281.021393 1007.084717,274.016235 1008.416565,267.470428 
	C1010.768677,255.910049 1020.245422,252.866318 1029.669922,252.089844 
	C1035.536377,251.606491 1041.475342,252.000092 1048.252686,252.000092 
	C1047.911865,247.934052 1047.763672,243.047928 1047.024048,238.253082 
	C1046.341919,233.831482 1042.957764,232.014008 1038.818726,232.060501 
	C1033.890137,232.115860 1028.947876,232.450943 1024.046143,232.982895 
	C1019.217407,233.506927 1014.431702,234.428741 1009.238281,235.236496 
	C1007.077087,231.699768 1005.358337,227.649231 1008.674927,222.815170 
M1033.479370,293.100861 
	C1037.374756,292.720947 1041.297607,292.498871 1045.142090,291.828278 
	C1045.913086,291.693787 1046.845215,289.884552 1046.921631,288.792877 
	C1047.403687,281.909241 1047.724243,275.012024 1047.943115,268.114380 
	C1047.980835,266.924713 1047.661377,265.235992 1046.855347,264.586151 
	C1041.528931,260.292114 1028.581299,263.520020 1026.622070,270.147766 
	C1025.180786,275.023285 1024.977051,280.517426 1025.454102,285.620667 
	C1025.786987,289.182220 1028.040283,292.714203 1033.479370,293.100861 
z"/>
<path fill="#575756" opacity="1.000000" stroke="none" 
	d="
M651.000000,259.000000 
	C651.000000,273.065582 651.000000,286.631165 651.000000,300.995361 
	C644.114746,302.794678 638.133057,305.455811 632.059387,305.685791 
	C623.114807,306.024445 614.013611,305.192871 605.156677,303.761261 
	C599.882446,302.908783 596.788025,298.020935 595.137512,293.095917 
	C592.383362,284.877869 591.989075,276.390503 594.519897,268.014526 
	C597.877197,256.903076 604.945923,252.740067 615.890442,252.064194 
	C621.742493,251.702805 627.635254,252.000031 633.997437,252.000031 
	C633.997437,248.208496 634.132690,243.746140 633.957581,239.295990 
	C633.797546,235.229645 630.343750,231.907990 625.610168,232.106171 
	C617.265747,232.455536 608.922302,233.239487 600.634521,234.286057 
	C598.030701,234.614838 595.289917,236.974640 594.076721,232.827866 
	C591.979553,225.659134 593.036072,222.936356 597.019958,221.584961 
	C601.285828,220.137909 605.748901,218.872498 610.209534,218.480804 
	C619.922485,217.627869 629.750122,216.115906 639.376343,219.032486 
	C647.323486,221.440323 650.992188,226.711563 650.998657,235.032715 
	C651.004822,242.855148 651.000000,250.677567 651.000000,259.000000 
M631.527039,291.996307 
	C632.349976,290.968231 633.856384,289.959503 633.886108,288.908997 
	C634.093201,281.588806 634.073669,274.258057 633.898315,266.936157 
	C633.874939,265.958588 632.728882,264.383667 631.825500,264.147980 
	C622.751770,261.781067 614.299316,262.756409 611.286438,274.189240 
	C608.910889,283.203827 612.489197,291.911560 620.254456,293.475922 
	C623.502136,294.130157 627.188416,292.607513 631.527039,291.996307 
z"/>
<path fill="#575756" opacity="1.000000" stroke="none" 
	d="
M919.634644,217.968231 
	C931.023804,214.259766 945.712769,223.218811 947.933044,235.094070 
	C949.767151,244.903732 948.678223,254.653534 947.120300,264.418243 
	C946.670776,267.236084 945.625183,267.894714 943.017822,268.059875 
	C930.532227,268.850769 918.059631,269.848083 905.472900,270.780182 
	C903.240845,284.485992 914.192871,294.995209 928.178894,291.838318 
	C933.208923,290.702942 938.059326,288.783173 943.075317,287.565613 
	C944.181946,287.296967 946.475830,288.174957 946.806824,289.056671 
	C949.146118,295.286835 946.210266,301.771881 939.788940,303.581879 
	C928.736572,306.697296 917.411621,307.365143 906.184265,304.577698 
	C895.900146,302.024506 891.238953,294.057617 889.087097,284.551666 
	C885.276550,267.717896 886.258667,250.916092 892.276062,234.824921 
	C895.522827,226.142532 904.784424,217.083359 919.634644,217.968231 
M914.854614,232.027618 
	C906.413391,238.578476 906.868896,248.459946 904.868286,258.388184 
	C913.038452,257.899567 920.774292,257.651459 928.438416,256.775574 
	C929.776184,256.622711 931.695740,253.888016 931.809998,252.239288 
	C932.079102,248.355789 931.851929,244.317581 931.052368,240.504044 
	C929.046143,230.934464 925.215393,228.934753 914.854614,232.027618 
z"/>
<path fill="#575756" opacity="1.000000" stroke="none" 
	d="
M722.371216,226.843933 
	C723.421204,230.762985 724.858032,234.386246 724.893738,238.023254 
	C725.107971,259.826630 725.000000,281.633209 725.000000,303.842346 
	C719.039246,304.356995 713.372803,304.846222 707.000000,305.396454 
	C707.000000,303.012695 707.000000,301.250824 707.000000,299.488983 
	C707.000000,280.323090 706.895813,261.156403 707.040405,241.991608 
	C707.122681,231.092560 701.476440,229.993484 693.888123,231.034943 
	C681.971741,232.670380 682.000000,232.876144 682.000000,244.647385 
	C682.000000,261.813354 682.000061,278.979340 682.000000,296.145325 
	C681.999939,304.136353 682.006775,304.211426 673.990479,304.953186 
	C671.208374,305.210632 668.382446,304.994202 665.263062,304.994202 
	C665.164673,303.269165 665.011475,301.825073 665.010559,300.380920 
	C664.995789,276.215210 665.115112,252.048416 664.885010,227.884918 
	C664.847351,223.924026 666.117554,222.225189 669.772278,221.611740 
	C678.591431,220.131500 687.382324,217.442444 696.205322,217.356247 
	C703.242920,217.287476 711.082520,217.083694 717.378174,221.866409 
	C719.131104,223.198090 720.542480,224.979431 722.371216,226.843933 
z"/>
<path fill="#575756" opacity="1.000000" stroke="none" 
	d="
M870.042847,302.040894 
	C856.650452,306.982422 843.245789,307.171051 829.871765,304.775909 
	C821.491211,303.275085 815.169434,294.437531 815.010010,285.669800 
	C814.644958,265.581940 814.446960,245.490082 813.919067,225.406738 
	C813.789185,220.467651 816.047729,218.957214 820.381470,218.993896 
	C824.030640,219.024780 827.680176,219.000259 832.000000,219.000259 
	C832.000000,220.977264 832.000000,222.735641 832.000000,224.494034 
	C832.000000,242.488770 831.999817,260.483521 832.000000,278.478241 
	C832.000122,290.659515 838.352966,295.614716 850.381897,292.816833 
	C857.999878,291.044891 858.000000,291.044891 858.000000,283.063934 
	C858.000061,263.569641 858.146545,244.073425 857.892029,224.582443 
	C857.831909,219.979370 859.680847,218.816162 863.685425,218.970688 
	C867.303406,219.110306 870.931030,219.000137 875.000000,219.000137 
	C875.000000,222.383087 875.000000,225.339523 875.000000,228.295959 
	C875.000000,250.622757 874.931885,272.949982 875.068726,295.275940 
	C875.090820,298.889526 874.452454,301.436432 870.042847,302.040894 
z"/>
<path fill="#575756" opacity="1.000000" stroke="none" 
	d="
M487.533203,232.217285 
	C480.086975,229.191574 473.258148,230.980560 466.047150,233.481873 
	C466.047150,256.628601 466.047150,280.054962 466.047150,303.815979 
	C460.340515,304.336243 455.008850,304.822296 449.347107,305.338470 
	C449.201294,303.493347 449.013855,302.220764 449.012939,300.948059 
	C448.995575,276.457947 449.055725,251.967575 448.934479,227.478073 
	C448.917999,224.154022 449.658295,222.372009 453.257904,221.866013 
	C461.137909,220.758316 468.932251,218.638748 476.832153,218.198013 
	C483.632019,217.818665 490.679321,218.512772 497.343689,219.977112 
	C504.549103,221.560303 508.869965,227.357315 508.928284,234.506073 
	C509.115601,257.471069 508.998016,280.438507 508.998016,303.824005 
	C503.401947,304.337219 498.068726,304.826324 492.000000,305.382874 
	C492.000000,303.056122 492.000000,301.298401 492.000000,299.540680 
	C492.000000,281.214752 492.242554,262.883148 491.812958,244.567291 
	C491.717133,240.482864 489.259033,236.453857 487.533203,232.217285 
z"/>
<path fill="#EA5B0C" opacity="1.000000" stroke="none" 
	d="
M247.946320,248.786133 
	C246.287781,243.247849 247.138626,241.858887 252.093201,240.988358 
	C263.122925,239.050491 274.076752,236.485352 285.180756,235.232834 
	C292.825928,234.370438 294.088715,233.430054 298.225891,241.454926 
	C303.506104,251.696991 309.424896,261.608185 314.883301,271.761536 
	C315.868134,273.593506 316.978912,276.523926 316.187500,277.828735 
	C315.333374,279.236938 312.356781,279.688019 310.232697,279.941101 
	C298.233307,281.370758 286.219391,282.691650 274.193756,283.881104 
	C270.090485,284.286926 266.662201,283.303589 264.437714,279.052185 
	C259.171082,268.986633 253.524826,259.119659 247.946320,248.786133 
z"/>
<path fill="#EA5B0C" opacity="1.000000" stroke="none" 
	d="
M208.003723,264.975159 
	C203.291901,273.914032 198.537186,282.425812 194.041458,291.072266 
	C192.111389,294.784332 189.619095,297.172974 185.408813,298.272247 
	C167.430771,302.966248 149.521255,307.922577 130.397705,313.105438 
	C131.374481,310.088837 131.856720,307.457855 133.030060,305.183350 
	C137.050079,297.390472 141.333923,289.734100 145.475708,282.003510 
	C148.737305,275.915771 154.638046,273.294708 160.521240,270.950317 
	C175.990829,264.785767 191.565369,258.882385 207.143539,252.995239 
	C209.176895,252.226822 211.476822,252.163834 214.884369,251.553696 
	C212.220856,256.650940 210.143311,260.626770 208.003723,264.975159 
z"/>
<path fill="#F39200" opacity="1.000000" stroke="none" 
	d="
M207.737885,166.771423 
	C214.219971,155.250351 220.276443,143.905273 226.730453,132.791031 
	C229.892105,127.346413 236.104004,127.261650 239.164612,132.634750 
	C245.688293,144.087570 251.746994,155.804321 258.091705,167.360504 
	C260.209137,171.217194 257.867188,172.851822 254.925018,173.914856 
	C242.891251,178.262833 230.582077,181.933350 218.805389,186.879669 
	C210.303574,190.450485 202.487106,195.650421 194.350235,200.096786 
	C193.538239,200.540497 192.623749,200.796661 190.309158,201.712982 
	C191.495438,198.273895 192.011002,195.840652 193.122650,193.719849 
	C197.810287,184.776657 202.675674,175.926605 207.737885,166.771423 
z"/>
<path fill="#575756" opacity="1.000000" stroke="none" 
	d="
M960.000000,277.000000 
	C960.000000,260.693146 960.084473,244.885468 959.927124,229.080185 
	C959.896545,226.001602 960.836548,224.316803 963.631592,223.005859 
	C973.747253,218.261414 984.286560,216.577087 995.335022,218.024734 
	C999.614136,218.585403 1002.796509,222.793228 1001.914001,226.875931 
	C1001.408936,229.212723 1000.469055,231.455505 999.759827,233.633347 
	C991.878845,231.081100 984.461060,230.995361 976.997803,235.610580 
	C976.997803,258.015594 976.997803,280.753662 976.997803,303.820221 
	C971.336243,304.336609 966.009094,304.822510 960.000000,305.370605 
	C960.000000,295.671692 960.000000,286.585846 960.000000,277.000000 
z"/>
<path fill="#EE7203" opacity="1.000000" stroke="none" 
	d="
M283.362427,226.789032 
	C281.028900,222.293167 279.289246,217.634903 277.037567,213.238907 
	C273.103058,205.557373 268.765564,198.083008 264.776794,190.428101 
	C263.025635,187.067429 261.265686,185.380280 256.979889,186.753967 
	C231.112915,195.044922 205.920334,204.745941 184.234589,221.613846 
	C180.185928,224.763031 176.697784,229.038940 174.009415,233.441254 
	C169.283768,241.179688 165.355011,249.406647 161.161545,257.464935 
	C160.805725,258.148682 160.968048,259.102112 160.809570,260.377777 
	C158.572052,261.322845 157.040894,260.562775 158.317398,258.376770 
	C165.679367,245.769791 171.989563,232.265137 181.084167,221.030121 
	C190.929184,208.868118 205.962738,202.789459 220.125977,196.600937 
	C232.848785,191.041809 246.153168,186.810608 259.215912,182.034454 
	C263.303925,180.539780 266.262024,181.689423 268.343628,185.709015 
	C274.249695,197.113724 280.184967,208.508835 286.423767,219.732620 
	C288.611877,223.669144 287.666046,225.574783 283.362427,226.789032 
z"/>
<path fill="#EE7203" opacity="1.000000" stroke="none" 
	d="
M163.361450,259.899170 
	C164.981750,258.630005 166.963394,257.426636 169.334564,256.414459 
	C167.723633,257.725403 165.723206,258.845154 163.361450,259.899170 
z"/>
<path fill="#EE7203" opacity="1.000000" stroke="none" 
	d="
M182.328461,251.899918 
	C182.682861,251.308533 183.364944,250.783722 184.389313,250.447540 
	C184.039795,251.079620 183.347961,251.523056 182.328461,251.899918 
z"/>
<path fill="#EE7203" opacity="1.000000" stroke="none" 
	d="
M177.328461,253.899918 
	C177.682877,253.308548 178.364944,252.783737 179.389328,252.447540 
	C179.039780,253.079605 178.347946,253.523041 177.328461,253.899918 
z"/>
<path fill="#EE7203" opacity="1.000000" stroke="none" 
	d="
M172.328461,255.899933 
	C172.682892,255.308548 173.364975,254.783737 174.389343,254.447586 
	C174.039795,255.079666 173.347946,255.523087 172.328461,255.899933 
z"/>
<path fill="#FFFFFF" opacity="1.000000" stroke="none" 
	d="
M784.000000,275.958771 
	C784.000000,277.950317 783.760681,279.495819 784.041809,280.940002 
	C785.190002,286.839294 782.046997,289.628235 776.886169,290.548401 
	C767.725403,292.181793 760.147278,291.139801 756.283508,280.274017 
	C752.044617,268.353546 752.369385,255.938416 756.143738,243.866760 
	C758.497314,236.338989 766.220398,231.477310 773.908203,231.880905 
	C785.580139,232.493637 783.902954,230.409912 783.983276,241.990646 
	C784.060730,253.148636 784.000000,264.307587 784.000000,275.958771 
z"/>
<path fill="#FFFFFF" opacity="1.000000" stroke="none" 
	d="
M410.037781,253.905334 
	C410.698059,256.312744 411.320038,258.302979 411.952606,260.327148 
	C403.686523,260.327148 395.605377,260.327148 386.896576,260.327148 
	C389.068420,251.949493 391.074799,244.366730 392.994110,236.761978 
	C394.890503,229.248093 396.698914,221.711990 399.408386,213.912003 
	C402.938751,227.104080 406.469116,240.296143 410.037781,253.905334 
z"/>
<path fill="#FFFFFF" opacity="1.000000" stroke="none" 
	d="
M1033.068359,293.057953 
	C1028.040283,292.714203 1025.786987,289.182220 1025.454102,285.620667 
	C1024.977051,280.517426 1025.180786,275.023285 1026.622070,270.147766 
	C1028.581299,263.520020 1041.528931,260.292114 1046.855347,264.586151 
	C1047.661377,265.235992 1047.980835,266.924713 1047.943115,268.114380 
	C1047.724243,275.012024 1047.403687,281.909241 1046.921631,288.792877 
	C1046.845215,289.884552 1045.913086,291.693787 1045.142090,291.828278 
	C1041.297607,292.498871 1037.374756,292.720947 1033.068359,293.057953 
z"/>
<path fill="#FFFFFF" opacity="1.000000" stroke="none" 
	d="
M631.101196,292.035461 
	C627.188416,292.607513 623.502136,294.130157 620.254456,293.475922 
	C612.489197,291.911560 608.910889,283.203827 611.286438,274.189240 
	C614.299316,262.756409 622.751770,261.781067 631.825500,264.147980 
	C632.728882,264.383667 633.874939,265.958588 633.898315,266.936157 
	C634.073669,274.258057 634.093201,281.588806 633.886108,288.908997 
	C633.856384,289.959503 632.349976,290.968231 631.101196,292.035461 
z"/>
<path fill="#FFFFFF" opacity="1.000000" stroke="none" 
	d="
M915.235107,231.938950 
	C925.215393,228.934753 929.046143,230.934464 931.052368,240.504044 
	C931.851929,244.317581 932.079102,248.355789 931.809998,252.239288 
	C931.695740,253.888016 929.776184,256.622711 928.438416,256.775574 
	C920.774292,257.651459 913.038452,257.899567 904.868286,258.388184 
	C906.868896,248.459946 906.413391,238.578476 915.235107,231.938950 
z"/>
</svg>